# xmcd
#
# Track frame offsets:
#	150
#	20719
#	34891
#	51094
#	71345
#	86586
#	101858
#	121359
#	141237
#	161339
#	174775
#	187679
#	205679
#	220481
#	231559
#
# Disc length: 3227 seconds
#
# Revision: 1
# Processed by: cddbd v1.5.2PL0 Copyright (c) Steve Scherf et al.
# Submitted via: FairStars CD Ripper 1.60
#
DISCID=d00c990f
DTITLE=Clive Bruce - Die Kitaar Dans Lekker
DYEAR=2006
DGENRE=Instrumental Pop
TTITLE0=Ek En My Meisie - Mama Tembu's Wedding - FBI
TTITLE1=Vyfster
TTITLE2=Pampoen
TTITLE3=Rebel Rouster - Red River Valley - Zambezi - Outa In Die Langpad - Lekker Ou Jan
TTITLE4=Last Date
TTITLE5=Lente In Die Reen
TTITLE6=Strangers Tema
TTITLE7=Apache
TTITLE8=Viva Espana - The Locomotion - Man Of Mystery
TTITLE9=Silwer Strome
TTITLE10=Guitar Boogie
TTITLE11=Ghostriders In The Sky
TTITLE12=Round And Around - Walk Don't Run - Let's Go
TTITLE13=Dance On
TTITLE14=Wheels
EXTD=
EXTT0=
EXTT1=
EXTT2=
EXTT3=
EXTT4=
EXTT5=
EXTT6=
EXTT7=
EXTT8=
EXTT9=
EXTT10=
EXTT11=
EXTT12=
EXTT13=
EXTT14=
PLAYORDER=
